<?xml version="1.0" encoding="utf-8"?>
<!-- Generator: Adobe Illustrator 25.1.0, SVG Export Plug-In . SVG Version: 6.00 Build 0)  -->
<svg version="1.1" id="Layer_1" xmlns="http://www.w3.org/2000/svg" xmlns:xlink="http://www.w3.org/1999/xlink" x="0px" y="0px"
     viewBox="0 0 512 512" style="enable-background:new 0 0 512 512;" xml:space="preserve">
<polygon fill="#CC2828" points="466,121 256,16 46,121 46,391 256,496 466,391 "/>
    <polygon fill="#E52D2D" points="256,226 46,121 46,391 256,496 466,391 466,121 "/>
    <polygon fill="#B22323" points="256,226 256,496 466,391 466,121 "/>
    <path fill="#FFFFFF" d="M231.5,302c3.8,4.6,8.1,8.2,12.9,10.8c4.8,2.6,10.2,3.9,16.2,3.9c8.1,0,14.5-2.2,19.4-6.7s7.3-10.2,7.3-17.1
	c0-6.8-1.6-12.2-4.8-16.2c-3.2-4-7.3-7.3-12.4-9.8s-10.6-4.8-16.3-6.8c-3.7-1.3-7.9-3-12.5-5.1s-9-4.8-13.2-8
	c-4.2-3.2-7.6-7.2-10.3-12c-2.7-4.8-4-10.6-4-17.5c0-7.5,1.9-14.2,5.6-20.1c3.7-5.9,8.9-10.5,15.6-13.9c6.6-3.4,14.2-5.1,22.7-5.1
	c8.2,0,15.4,1.5,21.5,4.6s11.3,7.1,15.7,11.9c4.3,4.8,7.7,9.9,10.2,15.2l-15.8,9.1c-1.9-3.7-4.2-7.4-7.1-11s-6.4-6.6-10.5-8.9
	c-4.1-2.3-9.1-3.5-15-3.5c-8.2,0-14.2,2-17.9,5.9c-3.7,4-5.6,8.4-5.6,13.3c0,4.2,1.1,8,3.2,11.6c2.2,3.5,5.8,6.8,10.9,9.9
	c5.1,3.1,12.1,6.2,20.8,9.2c4,1.4,8.3,3.3,12.7,5.6c4.5,2.3,8.6,5.2,12.4,8.7s6.9,7.8,9.4,12.7c2.4,5,3.7,10.9,3.7,17.8
	c0,6.6-1.3,12.6-3.8,17.9s-6,9.9-10.4,13.6s-9.4,6.6-14.9,8.6s-11.3,3-17.4,3c-8.2,0-15.8-1.8-22.8-5.3s-13.1-8.2-18.4-14
	s-9.5-12.1-12.9-18.7l14.7-9.9C224.1,292.1,227.7,297.4,231.5,302z"/>
</svg>