<?xml version="1.0" encoding="utf-8"?>
<!-- Generator: Adobe Illustrator 23.0.6, SVG Export Plug-In . SVG Version: 6.00 Build 0)  -->
<svg version="1.1" id="logo" xmlns="http://www.w3.org/2000/svg" viewBox="0 0 512 512" xml:space="preserve">
    <style type="text/css">
        .st0{fill:#AE1E21;}
        .st1{fill:#96191E;}
        .st2{fill:#C4232E;}
        .st3{filter:url(#inside_depth);}
        .st4{fill:#FFFFFF;}
    </style>
    <filter height="150%" id="inside_depth" width="150%">
	    <feFlood flood-color="#000" result="black"></feFlood>
        <feMorphology in="SourceGraphic" operator="dilate" radius="2" result="erode"></feMorphology>
        <feGaussianBlur in="erode" result="blur" stdDeviation="6"></feGaussianBlur>
        <feOffset dx="" dy="2" in="blur" result="offset"></feOffset>
        <feComposite in="offset" in2="black" operator="atop" result="merge"></feComposite>
        <feComposite in="merge" in2="SourceGraphic" operator="in" result="inner-shadow"></feComposite>
    </filter>
    <polygon class="st0" points="480,112 256,0 32,112 32,400 256,512 480,400 "/>
    <polygon class="st1" points="256,224 32,112 32,400 256,512 480,400 480,112 "/>
    <polygon class="st2" points="256,224 256,512 480,400 480,112 "/>
    <g id="text" class="st3">
        <path class="st4" d="M198.4,300.2l15.9-9.5c11.2,20.6,24.1,30.8,38.7,30.8c6.3,0,12.1-1.5,17.6-4.4c5.5-2.9,9.7-6.8,12.6-11.7
            c2.9-4.9,4.3-10.1,4.3-15.6c0-6.3-2.1-12.4-6.3-18.4c-5.8-8.3-16.5-18.3-32-30c-15.6-11.8-25.3-20.3-29.1-25.5
            c-6.6-8.8-9.9-18.3-9.9-28.6c0-8.1,1.9-15.5,5.8-22.2c3.9-6.7,9.4-12,16.4-15.8c7.1-3.9,14.7-5.8,23-5.8c8.8,0,17,2.2,24.7,6.5
            c7.7,4.4,15.8,12.4,24.3,24.1l-15.2,11.6c-7-9.3-13-15.4-18-18.4c-5-3-10.3-4.4-16.2-4.4c-7.5,0-13.7,2.3-18.5,6.9
            c-4.8,4.6-7.2,10.2-7.2,16.9c0,4.1,0.8,8,2.5,11.8c1.7,3.8,4.8,8,9.3,12.4c2.5,2.4,10.5,8.6,24.1,18.7
            c16.2,11.9,27.3,22.6,33.3,31.9c6,9.3,9,18.7,9,28.1c0,13.5-5.1,25.3-15.4,35.3c-10.3,10-22.8,15-37.5,15c-11.3,0-21.6-3-30.8-9.1
            C214.7,324.6,206.2,314.4,198.4,300.2z"/>
    </g>
</svg>
