<?xml version="1.0" standalone="no"?>
<!DOCTYPE svg PUBLIC "-//W3C//DTD SVG 20010904//EN"
 "http://www.w3.org/TR/2001/REC-SVG-20010904/DTD/svg10.dtd">
<svg version="1.0" xmlns="http://www.w3.org/2000/svg"
 width="700.000000pt" height="700.000000pt" viewBox="0 0 700.000000 700.000000"
 preserveAspectRatio="xMidYMid meet">
<metadata>
Created by potrace 1.11, written by Peter Selinger 2001-2013
</metadata>
<g transform="translate(0.000000,700.000000) scale(0.100000,-0.100000)"
fill="#000000" stroke="none">
<path d="M2063 6062 l-1433 -717 0 -1845 0 -1845 1437 -719 1438 -719 1432
717 1433 716 0 1848 0 1847 -1435 718 c-789 394 -1436 717 -1438 716 -1 0
-647 -323 -1434 -717z m1670 -1531 c112 -39 179 -83 272 -176 78 -78 141 -163
159 -215 4 -11 -22 -31 -92 -70 -53 -30 -102 -55 -108 -55 -7 0 -35 35 -63 77
-100 149 -212 219 -361 226 -162 8 -251 -30 -315 -133 -27 -44 -30 -57 -30
-129 1 -68 5 -89 27 -132 52 -100 179 -184 396 -265 248 -92 384 -182 473
-314 70 -103 94 -184 93 -320 -1 -124 -25 -213 -84 -305 -70 -109 -206 -207
-350 -252 -62 -19 -97 -23 -200 -23 -110 0 -135 3 -211 28 -203 67 -363 208
-507 448 l-22 36 102 69 c93 64 102 68 112 51 109 -182 222 -304 329 -357 88
-43 192 -58 288 -42 122 21 207 81 256 180 25 50 28 68 28 148 -1 82 -4 97
-33 157 -55 112 -161 185 -387 267 -49 18 -139 56 -200 85 -244 116 -352 243
-377 442 -20 158 25 301 128 413 86 92 205 158 327 180 86 15 283 5 350 -19z"/>
</g>
</svg>
